M48
; DRILL file {KiCad (5.1.7)-1} date 08/14/21 14:35:36
; FORMAT={-:-/ absolute / inch / decimal}
; #@! TF.CreationDate,2021-08-14T14:35:36+02:00
; #@! TF.GenerationSoftware,Kicad,Pcbnew,(5.1.7)-1
FMAT,2
INCH
T1C0.0118
T2C0.0157
T3C0.0236
T4C0.0315
T5C0.0394
T6C0.0433
T7C0.0472
T8C0.1260
T9C0.0866
%
G90
G05
T1
X5.202Y-3.4476
X5.3931Y-3.6182
X5.5503Y-3.5439
X5.7322Y-3.2143
X5.7331Y-3.1196
X5.8403Y-3.1343
X5.8638Y-2.8949
X5.9185Y-4.2386
X6.1604Y-3.0538
X6.186Y-3.0538
X6.2116Y-3.0538
X6.2307Y-4.2387
X6.2372Y-3.0538
X6.2628Y-3.0538
X6.2773Y-2.9301
X6.2884Y-3.0538
X6.3099Y-2.5291
X6.314Y-3.0538
X6.3396Y-3.0538
X6.4348Y-2.3324
X6.4599Y-2.5291
X6.4997Y-2.6243
X6.5448Y-2.5875
X6.7501Y-2.5937
X6.7524Y-3.7227
X6.8435Y-4.2386
X6.8531Y-3.6244
X6.8794Y-2.3369
X6.8849Y-2.5291
X6.9367Y-2.5843
X6.9793Y-2.5835
X7.1576Y-4.2395
X7.2Y-2.625
X7.3374Y-4.6256
X7.3579Y-3.1453
X7.3609Y-2.847
X7.378Y-2.3321
X7.4291Y-4.2719
X7.4327Y-2.847
T2
X5.202Y-3.5342
X5.4124Y-4.3833
X5.4181Y-4.2934
X5.4189Y-4.1464
X5.4214Y-4.2134
X5.472Y-4.4618
X5.4835Y-4.358
X5.4908Y-4.2812
X5.4973Y-4.2044
X5.5366Y-4.541
X5.5472Y-4.4348
X5.5537Y-4.3515
X5.5586Y-4.2689
X5.6003Y-4.6113
X5.6068Y-4.5092
X5.6191Y-4.443
X5.6224Y-4.3376
X5.6681Y-4.4438
X5.6747Y-4.3743
X5.6905Y-3.5739
X5.7376Y-4.4528
X5.8344Y-4.0527
X5.8927Y-3.2813
X5.9015Y-3.4055
X5.9067Y-2.9372
X5.9135Y-3.002
X5.9177Y-3.0598
X5.9253Y-3.2837
X5.9291Y-3.3171
X5.9604Y-3.0006
X5.9613Y-3.2874
X5.9748Y-2.9372
X5.9817Y-3.055
X6.0258Y-2.9296
X6.0285Y-3.0599
X6.0286Y-3.0061
X6.0502Y-3.4155
X6.091Y-3.4182
X6.1305Y-3.4522
X6.1326Y-3.4182
X6.2565Y-2.662
X6.298Y-4.2065
X6.3501Y-2.6605
X6.3603Y-3.521
X6.3611Y-3.421
X6.3619Y-3.4664
X6.3675Y-4.2065
X6.4074Y-3.4218
X6.4082Y-3.4714
X6.4107Y-3.5169
X6.4511Y-2.6601
X6.452Y-3.421
X6.4545Y-3.4714
X6.4545Y-3.5193
X6.4649Y-4.2065
X6.5486Y-2.6487
X6.6349Y-2.5291
X6.7429Y-3.8578
X6.7471Y-3.9327
X6.7546Y-3.787
X6.7696Y-3.9044
X6.7748Y-4.197
X6.7764Y-4.0899
X6.7833Y-3.8318
X6.7855Y-2.5221
X6.7895Y-3.7696
X6.8187Y-3.8066
X6.8435Y-4.0614
X6.9849Y-2.5291
X7.0795Y-3.7222
X7.1124Y-3.7748
X7.1207Y-3.7359
X7.1397Y-3.3167
X7.1565Y-4.0614
X7.1616Y-3.7353
X7.1766Y-3.1525
X7.1798Y-3.7758
X7.1962Y-2.9642
X7.1968Y-3.1169
X7.2067Y-3.7365
X7.2218Y-3.1537
X7.2295Y-2.9933
X7.2343Y-3.7673
X7.2361Y-3.1172
X7.2529Y-3.7258
X7.2657Y-3.0242
X7.2914Y-3.0466
X7.3031Y-3.1757
X7.3308Y-3.1811
X7.4101Y-3.0973
X7.4101Y-3.1216
X7.4505Y-3.1056
T3
X5.4774Y-3.5341
X5.6951Y-3.1688
X6.2Y-3.225
X6.3625Y-2.4592
T4
X7.45Y-2.75
X7.45Y-3.05
X6.475Y-4.0
X6.475Y-4.3
X7.45Y-3.175
X7.45Y-3.475
X6.625Y-4.0
X6.625Y-4.3
X7.45Y-2.3
X7.45Y-2.6
X5.75Y-2.3
X5.75Y-2.6
X5.75Y-2.75
X5.75Y-3.05
X7.45Y-3.6
X7.45Y-3.9
X7.45Y-4.025
X7.45Y-4.325
T5
X5.675Y-3.275
X5.675Y-3.375
X5.675Y-3.475
X5.775Y-3.275
X5.775Y-3.375
X5.775Y-3.475
X6.45Y-2.4
X6.55Y-2.4
X6.65Y-2.4
X6.75Y-2.4
T6
X5.1875Y-3.0778
X5.4875Y-3.0778
T7
X7.7894Y-5.175
X7.8878Y-5.175
T8
X7.9638Y-4.6197
X5.3362Y-2.3362
X5.3362Y-5.3138
X6.03Y-2.4
X6.03Y-3.56
X7.17Y-2.4
X7.17Y-3.56
X7.9638Y-2.3362
T9
X6.0909Y-4.9806
X7.1091Y-4.9806
T0
M30
