M48
; DRILL file {KiCad (5.1.7)-1} date 08/17/21 05:12:33
; FORMAT={-:-/ absolute / inch / decimal}
; #@! TF.CreationDate,2021-08-17T05:12:33+02:00
; #@! TF.GenerationSoftware,Kicad,Pcbnew,(5.1.7)-1
FMAT,2
INCH
T1C0.0118
T2C0.0157
T3C0.0236
T4C0.0315
T5C0.0394
T6C0.0433
T7C0.0472
T8C0.1260
T9C0.0866
%
G90
G05
T1
X5.202Y-3.4476
X5.3931Y-3.6182
X5.7322Y-3.2143
X5.7331Y-3.1196
X5.77Y-3.205
X5.77Y-3.225
X5.79Y-3.205
X5.79Y-3.225
X5.8403Y-3.1343
X5.8638Y-2.8949
X5.9185Y-4.2386
X6.07Y-3.39
X6.07Y-3.41
X6.07Y-3.43
X6.09Y-3.39
X6.09Y-3.41
X6.09Y-3.43
X6.11Y-3.41
X6.11Y-3.43
X6.1604Y-3.0538
X6.186Y-3.0538
X6.2116Y-3.0538
X6.2307Y-4.2387
X6.2372Y-3.0538
X6.2628Y-3.0538
X6.2773Y-2.9301
X6.2884Y-3.0538
X6.3062Y-3.2312
X6.3099Y-2.5291
X6.314Y-3.0538
X6.3396Y-3.0538
X6.35Y-2.6
X6.35Y-2.62
X6.35Y-2.64
X6.35Y-2.66
X6.4Y-2.31
X6.4Y-3.225
X6.4348Y-2.3324
X6.4599Y-2.5291
X6.4997Y-2.6243
X6.52Y-2.31
X6.6Y-2.38
X6.6Y-2.4
X6.735Y-3.405
X6.735Y-3.425
X6.7501Y-2.5937
X6.7524Y-3.7227
X6.8435Y-4.2386
X6.8531Y-3.6244
X6.8794Y-2.3369
X6.8849Y-2.5291
X6.9367Y-2.5843
X6.9793Y-2.5835
X7.1Y-2.625
X7.1576Y-4.2395
X7.2Y-2.625
X7.35Y-2.68
X7.3579Y-3.1453
X7.378Y-2.3321
X7.48Y-3.27
X7.53Y-2.72
X7.53Y-2.74
X7.53Y-2.76
X7.54Y-3.24
X7.55Y-2.72
X7.55Y-2.74
X7.55Y-2.76
X7.57Y-2.68
X7.57Y-2.72
X7.57Y-2.74
X7.57Y-2.76
X7.64Y-2.72
X7.64Y-2.74
X7.64Y-2.76
X7.65Y-2.68
X7.65Y-3.24
X7.65Y-3.27
X7.66Y-2.72
X7.66Y-2.74
X7.66Y-2.76
X7.68Y-2.74
X7.68Y-2.76
X7.9028Y-3.3462
X7.9284Y-3.3462
X7.9558Y-3.3513
T2
X5.202Y-3.5342
X5.6905Y-3.5739
X5.8344Y-4.0527
X6.298Y-4.2065
X6.3675Y-4.2065
X6.4649Y-4.2065
X6.6349Y-2.5291
X6.7748Y-4.197
X6.7764Y-4.0899
X6.7855Y-2.5221
X6.8435Y-4.0614
X6.9849Y-2.5291
X7.1565Y-4.0614
X7.61Y-4.5723
T3
X5.4774Y-3.5341
X5.6951Y-3.1688
X5.94Y-3.0
X5.96Y-3.29
X6.2Y-3.225
X6.3625Y-2.4592
X6.38Y-3.35
X6.615Y-2.86
X6.635Y-2.835
X6.7436Y-3.591
X6.77Y-3.5
X6.7907Y-3.3462
X7.07Y-2.82
X7.07Y-2.85
X7.1Y-2.82
X7.1Y-2.85
X7.1657Y-3.0538
X7.1657Y-3.3462
X7.34Y-2.93
X7.44Y-2.93
X7.53Y-3.4
X7.67Y-3.41
X8.02Y-3.05
T4
X7.45Y-2.75
X7.45Y-3.05
X7.45Y-2.3
X7.45Y-2.6
X7.53Y-4.1
X7.83Y-4.1
X6.475Y-4.0
X6.475Y-4.3
X6.625Y-4.0
X6.625Y-4.3
X7.53Y-3.92
X7.83Y-3.92
X7.53Y-3.74
X7.83Y-3.74
X5.75Y-2.3
X5.75Y-2.6
X5.75Y-2.75
X5.75Y-3.05
T5
X5.675Y-3.275
X5.675Y-3.375
X5.675Y-3.475
X5.775Y-3.275
X5.775Y-3.375
X5.775Y-3.475
X6.45Y-2.4
X6.55Y-2.4
X6.65Y-2.4
X6.75Y-2.4
T6
X5.1875Y-3.0778
X5.4875Y-3.0778
T7
X7.7894Y-5.175
X7.8878Y-5.175
T8
X5.3362Y-2.3362
X6.03Y-2.4
X6.03Y-3.56
X7.17Y-2.4
X7.17Y-3.56
X5.3362Y-5.3138
X7.9638Y-4.6197
X7.9638Y-2.3362
T9
X6.0909Y-4.9806
X7.1091Y-4.9806
T0
M30
